<?xml version="1.0" encoding="UTF-8"?>
<svg width="512" height="512" viewBox="0 0 512 512" fill="none" xmlns="http://www.w3.org/2000/svg">
  <rect width="512" height="512" fill="#0051a2"/>
  <path d="M256 128C174.4 128 128 174.4 128 256C128 337.6 174.4 384 256 384C337.6 384 384 337.6 384 256C384 174.4 337.6 128 256 128ZM256 352C192 352 160 320 160 256C160 192 192 160 256 160C320 160 352 192 352 256C352 320 320 352 256 352Z" fill="white"/>
  <path d="M256 192C209.6 192 192 209.6 192 256C192 302.4 209.6 320 256 320C302.4 320 320 302.4 320 256C320 209.6 302.4 192 256 192ZM256 288C227.2 288 224 284.8 224 256C224 227.2 227.2 224 256 224C284.8 224 288 227.2 288 256C288 284.8 284.8 288 256 288Z" fill="white"/>
</svg>